<svg width="78" height="14" viewBox="0 0 78 14" fill="none" xmlns="http://www.w3.org/2000/svg">
<path d="M6.696 0.779955C6.99535 -0.141356 8.29876 -0.141354 8.59811 0.779957L9.58844 3.82788C9.72232 4.2399 10.1063 4.51886 10.5395 4.51886H13.7443C14.713 4.51886 15.1158 5.75847 14.3321 6.32788L11.7393 8.21159C11.3889 8.46624 11.2422 8.9176 11.3761 9.32963L12.3664 12.3775C12.6658 13.2989 11.6113 14.065 10.8276 13.4956L8.23484 11.6119C7.88436 11.3572 7.40976 11.3572 7.05927 11.6119L4.46656 13.4956C3.68284 14.065 2.62836 13.2989 2.92772 12.3775L3.91805 9.32963C4.05192 8.9176 3.90526 8.46624 3.55477 8.21159L0.962057 6.32788C0.178344 5.75847 0.581121 4.51886 1.54984 4.51886H4.75462C5.18784 4.51886 5.5718 4.2399 5.70567 3.82788L6.696 0.779955Z" fill="#2C2C2C"/>
<path d="M22.3725 0.779955C22.6719 -0.141356 23.9753 -0.141354 24.2746 0.779957L25.265 3.82788C25.3988 4.2399 25.7828 4.51886 26.216 4.51886H29.4208C30.3895 4.51886 30.7923 5.75847 30.0086 6.32788L27.4159 8.21159C27.0654 8.46624 26.9187 8.9176 27.0526 9.32963L28.0429 12.3775C28.3423 13.2989 27.2878 14.065 26.5041 13.4956L23.9114 11.6119C23.5609 11.3572 23.0863 11.3572 22.7358 11.6119L20.1431 13.4956C19.3594 14.065 18.3049 13.2989 18.6042 12.3775L19.5946 9.32963C19.7284 8.9176 19.5818 8.46624 19.2313 8.21159L16.6386 6.32788C15.8549 5.75847 16.2576 4.51886 17.2264 4.51886H20.4311C20.8644 4.51886 21.2483 4.2399 21.3822 3.82788L22.3725 0.779955Z" fill="#2C2C2C"/>
<path d="M38.049 0.779955C38.3484 -0.141356 39.6518 -0.141354 39.9511 0.779957L40.9415 3.82788C41.0753 4.2399 41.4593 4.51886 41.8925 4.51886H45.0973C46.066 4.51886 46.4688 5.75847 45.6851 6.32788L43.0924 8.21159C42.7419 8.46624 42.5952 8.9176 42.7291 9.32963L43.7194 12.3775C44.0188 13.2989 42.9643 14.065 42.1806 13.4956L39.5879 11.6119C39.2374 11.3572 38.7628 11.3572 38.4123 11.6119L35.8196 13.4956C35.0359 14.065 33.9814 13.2989 34.2807 12.3775L35.2711 9.32963C35.4049 8.9176 35.2583 8.46624 34.9078 8.21159L32.3151 6.32788C31.5314 5.75847 31.9341 4.51886 32.9029 4.51886H36.1076C36.5409 4.51886 36.9248 4.2399 37.0587 3.82788L38.049 0.779955Z" fill="#2C2C2C"/>
<path d="M53.7253 0.779955C54.0247 -0.141356 55.3281 -0.141354 55.6274 0.779957L56.6177 3.82788C56.7516 4.2399 57.1356 4.51886 57.5688 4.51886H60.7736C61.7423 4.51886 62.1451 5.75847 61.3614 6.32788L58.7686 8.21159C58.4182 8.46624 58.2715 8.9176 58.4054 9.32963L59.3957 12.3775C59.6951 13.2989 58.6406 14.065 57.8569 13.4956L55.2641 11.6119C54.9137 11.3572 54.4391 11.3572 54.0886 11.6119L51.4959 13.4956C50.7121 14.065 49.6577 13.2989 49.957 12.3775L50.9473 9.32963C51.0812 8.9176 50.9346 8.46624 50.5841 8.21159L47.9914 6.32788C47.2076 5.75847 47.6104 4.51886 48.5791 4.51886H51.7839C52.2171 4.51886 52.6011 4.2399 52.735 3.82788L53.7253 0.779955Z" fill="#2C2C2C"/>
<path d="M69.4018 0.779955C69.7012 -0.141356 71.0046 -0.141354 71.3039 0.779957L72.2943 3.82788C72.4281 4.2399 72.8121 4.51886 73.2453 4.51886H76.4501C77.4188 4.51886 77.8216 5.75847 77.0379 6.32788L74.4452 8.21159C74.0947 8.46624 73.948 8.9176 74.0819 9.32963L75.0722 12.3775C75.3716 13.2989 74.3171 14.065 73.5334 13.4956L70.9407 11.6119C70.5902 11.3572 70.1156 11.3572 69.7651 11.6119L67.1724 13.4956C66.3887 14.065 65.3342 13.2989 65.6335 12.3775L66.6239 9.32963C66.7577 8.9176 66.6111 8.46624 66.2606 8.21159L63.6679 6.32788C62.8842 5.75847 63.2869 4.51886 64.2557 4.51886H67.4604C67.8937 4.51886 68.2776 4.2399 68.4115 3.82788L69.4018 0.779955Z" fill="#2C2C2C"/>
</svg>
