<svg width="100%" height="100%" viewBox="0 0 151 14" fill="none" xmlns="http://www.w3.org/2000/svg">
<path fill-rule="evenodd" clip-rule="evenodd" d="M64.8373 0V13.3842H61.1082V0H64.8373ZM68.8564 13.6066C66.9365 13.6066 65.6442 12.4989 65.6442 10.8559C65.6442 10.0251 65.8842 9.41592 66.4011 8.97285C66.9549 8.49287 67.841 8.17903 69.1887 7.97596L71.6994 7.60674V7.2006C71.6994 6.49908 71.3486 6.16678 70.721 6.16678C70.001 6.16678 69.6318 6.536 69.5764 7.27444H65.9396C66.1057 5.13296 67.878 3.93299 70.7394 3.93299C73.9516 3.93299 75.4285 5.1145 75.4285 7.75443V11.1143C75.4285 12.0189 75.5208 12.9051 75.6501 13.385H72.0686C71.9763 12.9604 71.9394 12.5358 71.9394 12.0374C71.4594 12.9974 70.2594 13.6066 68.8564 13.6066ZM70.3887 11.3912C71.2379 11.3912 71.8286 10.8743 71.8286 10.1359V9.24977L70.7579 9.45284C69.8348 9.63745 69.3918 9.98821 69.3918 10.542C69.3918 11.0405 69.7979 11.3912 70.3887 11.3912ZM50.2845 8.73286C50.2845 12.0005 52.5552 13.6066 55.3429 13.6066C58.1305 13.6066 60.4012 12.0005 60.4012 8.73286C60.4012 5.46526 58.1305 3.93299 55.3429 3.93299C52.5552 3.93299 50.2845 5.46526 50.2845 8.73286ZM56.7274 8.73286C56.7274 10.4128 56.2105 11.1882 55.3429 11.1882C54.4752 11.1882 53.9583 10.4128 53.9583 8.73286C53.9583 7.05291 54.4752 6.35139 55.3429 6.35139C56.2105 6.35139 56.7274 7.05291 56.7274 8.73286ZM42.4667 6.51786V4.15484H43.999V2.05029L47.7281 0.647248V4.15484H49.8512V6.51786H47.7281V9.26855C47.7281 10.1178 48.2081 10.5977 49.0758 10.5977C49.3896 10.5977 49.6112 10.5793 49.8512 10.5424V13.3854C49.0204 13.5146 48.522 13.57 48.0051 13.57C45.2913 13.57 43.999 12.5177 43.999 10.3208V6.51786H42.4667ZM41.7261 3.93299C40.0462 3.93299 38.9939 4.83758 38.4954 6.68369V4.15453H34.9878V13.385H38.717V9.7113C38.717 8.88055 38.9385 8.27134 39.3631 7.90211C39.7323 7.58828 40.3046 7.42213 41.0246 7.42213C41.2968 7.42213 41.4995 7.43601 41.7292 7.45174L41.8369 7.45905V3.93299H41.7261ZM29.1301 13.6066C26.3425 13.6066 24.0718 12.0005 24.0718 8.73286C24.0718 5.46526 26.3425 3.93299 29.1301 3.93299C31.9177 3.93299 34.1884 5.46526 34.1884 8.73286C34.1884 12.0005 31.9177 13.6066 29.1301 13.6066ZM29.1301 11.1882C29.9978 11.1882 30.5147 10.4128 30.5147 8.73286C30.5147 7.05291 29.9978 6.35139 29.1301 6.35139C28.2624 6.35139 27.7455 7.05291 27.7455 8.73286C27.7455 10.4128 28.2624 11.1882 29.1301 11.1882ZM24.2835 4.52305C24.2835 1.95697 22.3636 0.277016 19.4282 0.277016H12.9854V13.3843H16.8437V8.9537H19.3359C22.4189 8.9537 24.2835 7.27375 24.2835 4.52305ZM20.2405 4.67074C20.2405 5.7784 19.5759 6.36915 18.3575 6.36915H16.8437V2.95387H18.3575C19.5944 2.95387 20.2405 3.54462 20.2405 4.67074ZM75.0427 2.438V1.99599H76.7944V2.438H76.1641V4.09147H75.6812V2.438H75.0427ZM78.6361 1.99599H79.2746V4.09147H78.808V3.43663C78.808 3.23199 78.808 3.01099 78.8162 2.77361C78.7998 2.81454 78.7835 2.86365 78.7671 2.92095L78.3578 4.09147H77.9731L77.5638 2.92095C77.5475 2.86365 77.5311 2.81454 77.5147 2.77361C77.5229 3.01099 77.5229 3.23199 77.5229 3.43663V4.09147H77.0563V1.99599H77.6948L78.0468 2.99462L78.1696 3.38752C78.2023 3.26474 78.2432 3.1174 78.2923 2.97825L78.6361 1.99599ZM93.1372 13.6631C91.0615 13.6631 89.6548 11.8618 89.6548 9.16856C89.6548 6.52675 91.1644 4.67405 93.3087 4.67405C94.4409 4.67405 95.2815 5.13722 95.8305 6.14935V1.02011H97.2886V13.4572H95.9162V11.8618C95.4016 13.0112 94.4752 13.6631 93.1372 13.6631ZM93.5317 12.3765C94.9556 12.3765 95.8648 11.21 95.8648 9.37442V8.97986C95.8648 7.11001 94.9727 5.96065 93.5317 5.96065C92.0736 5.96065 91.1987 7.14432 91.1987 9.16856C91.1987 11.1757 92.0736 12.3765 93.5317 12.3765ZM123.234 6.0806V4.87978H124.83V2.63252L126.288 2.01495V4.87978H128.432V6.0806H126.288V10.8324C126.288 11.8103 126.665 12.2391 127.54 12.2391C127.917 12.2391 128.14 12.1877 128.432 12.119V13.4571C128.055 13.56 127.711 13.6115 127.163 13.6115C125.31 13.6115 124.83 12.4793 124.83 10.8839V6.0806H123.234ZM140.352 6.83388C140.763 5.63305 141.655 4.67239 142.959 4.67239C143.062 4.67239 143.165 4.67239 143.268 4.68955V6.11338H143.199C142.307 6.11338 141.724 6.3707 141.312 6.78241C140.489 7.60584 140.454 8.7552 140.454 9.78448V13.4556H138.996V4.87825H140.352V6.83388ZM151 8.5665V9.59578H144.91C144.927 11.2769 145.939 12.3748 147.466 12.3748C148.564 12.3748 149.37 11.7916 149.748 10.7451L150.948 11.2769C150.348 12.838 149.096 13.6614 147.363 13.6614C144.91 13.6614 143.452 12.1004 143.452 9.26984C143.452 6.40501 144.893 4.67239 147.346 4.67239C149.662 4.67239 151 5.9933 151 8.5665ZM149.525 8.41211V8.2234C149.525 6.64518 148.718 5.82175 147.312 5.82175C145.802 5.82175 144.944 6.79957 144.91 8.41211H149.525ZM129.625 10.3512C129.625 12.3583 130.397 13.662 132.558 13.662C133.759 13.662 134.823 12.8901 135.217 11.8436V13.4562H136.59V4.87885H135.132V9.49344C135.132 11.2432 134.205 12.4097 132.833 12.4097C131.701 12.4097 131.083 11.6206 131.083 10.1796V4.87885H129.625V10.3512ZM115.44 4.87887V13.4562H116.898V8.97883C116.898 7.07466 117.773 5.9253 119.197 5.9253C120.449 5.9253 121.084 6.69726 121.084 8.20687V13.4562H122.542V8.12109C122.542 5.82237 121.564 4.6387 119.677 4.6387C118.322 4.6387 117.379 5.27342 116.813 6.57718V4.87887H115.44ZM113.722 8.5665V9.59578H107.632C107.649 11.2769 108.661 12.3748 110.188 12.3748C111.286 12.3748 112.092 11.7916 112.47 10.7451L113.671 11.2769C113.07 12.838 111.818 13.6614 110.085 13.6614C107.632 13.6614 106.174 12.1004 106.174 9.26984C106.174 6.40501 107.615 4.67239 110.068 4.67239C112.384 4.67239 113.722 5.9933 113.722 8.5665ZM112.247 8.41211V8.2234C112.247 6.64518 111.441 5.82175 110.034 5.82175C108.524 5.82175 107.667 6.79957 107.632 8.41211H112.247ZM98.4031 4.87885L101.508 13.4562H103.069L106.174 4.87885H104.596L102.675 10.66C102.52 11.1231 102.4 11.5692 102.314 11.9637H102.263C102.177 11.5692 102.057 11.1231 101.903 10.66L99.9813 4.87885H98.4031ZM81.177 11.1397C81.177 12.6665 82.3264 13.6614 84.0761 13.6614C85.4828 13.6614 86.5636 12.9924 86.9581 11.8945C86.9753 12.4434 87.0267 13.0095 87.0954 13.4556H88.6221C88.4163 12.7865 88.3305 11.8773 88.3305 10.5564V8.24056C88.3305 5.73598 87.3012 4.67239 84.951 4.67239C82.9439 4.67239 81.5716 5.82175 81.4515 7.57153H83.0126C83.0812 6.49079 83.8017 5.87322 84.9682 5.87322C86.2891 5.87322 86.8552 6.50794 86.8552 8.08617V8.2234L85.2598 8.41211C83.8531 8.58365 83.0297 8.78951 82.3778 9.11545C81.6059 9.54431 81.177 10.282 81.177 11.1397ZM86.8723 9.71586C86.8723 11.3799 85.8945 12.4606 84.4021 12.4606C83.3556 12.4606 82.7209 11.946 82.7209 11.1054C82.7209 10.2648 83.2699 9.81879 84.5393 9.63008L86.8723 9.28699V9.71586ZM2.89913 13.6398C1.14936 13.6398 0 12.6449 0 11.1181C0 10.2604 0.428866 9.52274 1.20082 9.09387C1.8527 8.76793 2.67612 8.56208 4.0828 8.39053L5.67819 8.20183V8.06459C5.67819 6.48636 5.11208 5.85164 3.79118 5.85164C2.62466 5.85164 1.90416 6.46921 1.83555 7.54995H0.274474C0.394557 5.80018 1.76693 4.65082 3.77402 4.65082C6.12421 4.65082 7.15348 5.71441 7.15348 8.21898V10.5349C7.15348 11.8558 7.23926 12.765 7.44511 13.434H5.91835C5.84973 12.988 5.79827 12.4219 5.78111 11.8729C5.38656 12.9708 4.30581 13.6398 2.89913 13.6398ZM3.22507 12.439C4.71753 12.439 5.69534 11.3583 5.69534 9.69428V9.26542L3.36231 9.60851C2.09287 9.79721 1.54392 10.2432 1.54392 11.0838C1.54392 11.9244 2.17864 12.439 3.22507 12.439Z" fill="currentColor"></path>
</svg>