<svg width="100%" height="100%" viewBox="0 0 25 25" fill="none" xmlns="http://www.w3.org/2000/svg">
<path fill-rule="evenodd" clip-rule="evenodd" d="M23 12.5C23 18.299 18.299 23 12.5 23C6.70101 23 2 18.299 2 12.5C2 6.70101 6.70101 2 12.5 2C18.299 2 23 6.70101 23 12.5ZM25 12.5C25 19.4036 19.4036 25 12.5 25C5.59644 25 0 19.4036 0 12.5C0 5.59644 5.59644 0 12.5 0C19.4036 0 25 5.59644 25 12.5ZM11.3379 14.4754V15.3098H13.5261V14.7721C13.5261 13.9932 13.7301 13.5667 14.3049 13.0661L15.195 12.2872C16.1407 11.4528 16.9381 10.3216 16.9381 9.00502C16.9381 6.66854 15.2877 5.3334 12.5804 5.3334C9.7432 5.3334 8.18555 6.90961 8.18555 9.17192C8.18555 9.43153 8.20409 9.76531 8.29681 10.2104L10.522 10.4329C10.4293 10.0064 10.4108 9.76531 10.4108 9.46861C10.4108 7.98513 11.2823 7.13213 12.5804 7.13213C13.7486 7.13213 14.5831 7.9295 14.5831 9.13483C14.5831 10.1918 14.0453 10.8594 13.3777 11.4157L12.4506 12.2131C11.4863 13.0475 11.3379 13.8078 11.3379 14.4754ZM11.1896 16.6264V19H13.7115V16.6264H11.1896Z" fill="currentColor"></path>
</svg>